<svg width="41" height="41" viewBox="0 0 41 41" fill="none" xmlns="http://www.w3.org/2000/svg">
<circle cx="20.5" cy="20.5" r="20.5" fill="#F9F9F9"/>
<path d="M21.4134 14.4086C21.4134 14.1662 21.3171 13.9338 21.1457 13.7625C20.9744 13.5911 20.742 13.4948 20.4997 13.4948C20.2573 13.4948 20.0249 13.5911 19.8536 13.7625C19.6822 13.9338 19.5859 14.1662 19.5859 14.4086V20.5C19.5859 20.6549 19.6252 20.8073 19.7002 20.9428C19.7752 21.0784 19.8835 21.1926 20.0148 21.2748L23.6696 23.5591C23.8751 23.6877 24.1233 23.7294 24.3595 23.675C24.4765 23.6481 24.587 23.5984 24.6848 23.5288C24.7826 23.4591 24.8657 23.3709 24.9293 23.2691C24.993 23.1674 25.036 23.0541 25.0559 22.9357C25.0758 22.8174 25.0722 22.6962 25.0453 22.5792C25.0183 22.4623 24.9686 22.3517 24.899 22.254C24.8294 22.1562 24.7411 22.0731 24.6394 22.0094L21.4134 19.9932V14.4086Z" fill="#4158D0"/>
<path fill-rule="evenodd" clip-rule="evenodd" d="M20.4998 9.84C17.6726 9.84 14.9612 10.9631 12.9621 12.9622C10.9629 14.9614 9.83984 17.6728 9.83984 20.5C9.83984 23.3272 10.9629 26.0386 12.9621 28.0378C14.9612 30.0369 17.6726 31.16 20.4998 31.16C23.3271 31.16 26.0385 30.0369 28.0376 28.0378C30.0367 26.0386 31.1598 23.3272 31.1598 20.5C31.1598 17.6728 30.0367 14.9614 28.0376 12.9622C26.0385 10.9631 23.3271 9.84 20.4998 9.84ZM11.6673 20.5C11.6673 19.3401 11.8957 18.1915 12.3396 17.1199C12.7835 16.0483 13.4341 15.0746 14.2543 14.2544C15.0745 13.4342 16.0481 12.7836 17.1198 12.3398C18.1914 11.8959 19.3399 11.6674 20.4998 11.6674C21.6598 11.6674 22.8083 11.8959 23.8799 12.3398C24.9515 12.7836 25.9252 13.4342 26.7454 14.2544C27.5656 15.0746 28.2162 16.0483 28.6601 17.1199C29.104 18.1915 29.3324 19.3401 29.3324 20.5C29.3324 22.8425 28.4018 25.0891 26.7454 26.7456C25.089 28.402 22.8424 29.3326 20.4998 29.3326C18.1573 29.3326 15.9107 28.402 14.2543 26.7456C12.5978 25.0891 11.6673 22.8425 11.6673 20.5Z" fill="#4158D0"/>
</svg>
