<svg width="29" height="29" viewBox="0 0 29 29" fill="none" xmlns="http://www.w3.org/2000/svg">
<path d="M1 13C1 7.3435 1 4.5145 2.758 2.758C4.516 1.0015 7.3435 1 13 1H16C21.6565 1 24.4855 1 26.242 2.758C27.9985 4.516 28 7.3435 28 13V16C28 21.6565 28 24.4855 26.242 26.242C24.484 27.9985 21.6565 28 16 28H13C7.3435 28 4.5145 28 2.758 26.242C1.0015 24.484 1 21.6565 1 16V13Z" stroke="#F9F9F9" stroke-width="2"/>
<path d="M21.25 10C22.4926 10 23.5 8.99264 23.5 7.75C23.5 6.50736 22.4926 5.5 21.25 5.5C20.0074 5.5 19 6.50736 19 7.75C19 8.99264 20.0074 10 21.25 10Z" fill="#F9F9F9"/>
<path d="M14.5 19C16.9853 19 19 16.9853 19 14.5C19 12.0147 16.9853 10 14.5 10C12.0147 10 10 12.0147 10 14.5C10 16.9853 12.0147 19 14.5 19Z" stroke="#F9F9F9" stroke-width="2"/>
</svg>
