<svg width="973" height="490" viewBox="0 0 973 490" fill="none" xmlns="http://www.w3.org/2000/svg">
<g clip-path="url(#clip0_92_110)">
<path d="M790.117 183.494C844.528 178.235 899.317 170.592 954.163 172.805C960.683 173.07 974.157 168.757 972.907 178.122C937.637 178.822 897.611 179.2 862.778 183.608C763.623 196.113 728.695 226.327 643.204 264.997C614.549 277.957 559.93 290.992 537.813 304.708C511.963 320.732 455.714 455.757 435.19 489.489C426.491 490 423.098 492.081 424.539 481.581C427.609 459.162 517.952 318.386 510.542 312.446C478.665 320.732 364.955 355.354 343.35 331.365C334.442 307.773 389.023 288.854 406.971 281.457C452.151 262.822 501.691 254.63 546.834 235.881L604.713 97.735C617.922 95.3512 612.767 107.611 611.441 115.197C608.105 133.984 565.483 227.349 569.728 231.87L757.482 185.859C937.41 21.6999 668.561 3.36746 550.928 11.862C537.377 12.8458 469.758 21.8323 468.071 30.9512C486.113 45.0648 443.301 133.567 437.976 135.365C432.593 137.181 421.658 137.957 424.652 127.362C432.044 101.122 467.919 66.2539 450.863 33.7323C442.6 27.9053 386.597 50.5512 374.999 56.3026C358.284 64.5891 321.783 96.2972 314.353 97.7729C311.34 98.3783 305.484 99.0972 306.261 95.0296C313.576 70.7188 386.976 36.1161 413.736 33.2026C415.063 23.8188 401.361 27.735 395.562 28.4539C346.42 34.4702 271.276 72.081 227.346 96.7512C175.57 125.849 18.3656 232.305 16.622 293.735C15.4091 336.359 129.745 330.249 158.305 328.432C206.348 325.367 256.589 311.973 303.494 301.549C314.922 299.297 313.292 306.543 306.28 309.759C284.467 319.805 221.376 329.946 195.337 333.2C58.221 350.34 -90.8721 338.592 69.5731 191.554C141.173 125.886 299.003 28.3783 395.486 17.7458C416.996 15.362 440.117 21.4161 457.572 19.4864C531.654 11.2566 591.731 -3.6893 669.376 0.83232C791.103 7.908 905.192 60.8242 790.136 183.494H790.117ZM714.841 210.435C660.355 224.284 547.63 217.794 542.835 290.897C600.43 269.386 667.405 249.578 714.841 210.435ZM537.377 253.362C531.881 248.103 408.051 291.105 392.321 299.051C381.291 304.632 359.326 314.111 359.989 328.451C370.545 337.665 495.323 310.743 512.171 300.603C520.359 295.684 541.092 256.919 537.377 253.362Z" fill="white"/>
</g>
<defs>
<clipPath id="clip0_92_110">
<rect width="973" height="490" fill="white"/>
</clipPath>
</defs>
</svg>
